# xmcd
#
# Track frame offsets:
#	150
#	1328
#	15375
#	26528
#	44759
#	56901
#	68926
#	83318
#	101196
#	116621
#	133045
#	150250
#	168849
#	195292
#	215866
#	239064
#	258343
#
# Disc length: 3730 seconds
#
# Revision: 1
# Processed by: cddbd v1.5.2PL0 Copyright (c) Steve Scherf et al.
# Submitted via: audiograbber 1.83.01
#
DISCID=e10e9011
DTITLE=Aerobic - Chart Attack Spring07 CD2
DYEAR=2007
DGENRE=Aerobic
TTITLE0=Intro
TTITLE1=Kosheen - Overkill - 115bpm
TTITLE2=Kaiser Chiefs - Ruby - 116bpm
TTITLE3=Red Hot Chili Peppers - Snow (Hey Oh) - 117bpm
TTITLE4=Timbaland ft. Furtado and Timberlake - Give It To Me - 118bpm
TTITLE5=Soccx - Scream Out Loud - 119bpm
TTITLE6=Sugababes vs. Girls Aloud - Walk This Way - 120bpm
TTITLE7=Kelis - Lil' Star - 120bpm
TTITLE8=Nelly Furtado - Say It Right - 121bpm
TTITLE9=Gwen Stefani - The Sweet Escape - 122bpm
TTITLE10=Pussycat Dolls - Wait A Minute - 123bpm
TTITLE11=Muse - Starlight - 124bpm
TTITLE12=Dennis Christopher - It's Not Right - 125bpm
TTITLE13=Eric Prydz vs. Pink Floyd - Proper Education - 126bpm
TTITLE14=Roger Moore - Sweet Dreams - 126bpm
TTITLE15=Razorlight - America - 85bpm
TTITLE16=Ville Valo feat. Natalia - Summer Wine - 0bpm
EXTD=
EXTT0=
EXTT1=
EXTT2=
EXTT3=
EXTT4=
EXTT5=
EXTT6=
EXTT7=
EXTT8=
EXTT9=
EXTT10=
EXTT11=
EXTT12=
EXTT13=
EXTT14=
EXTT15=
EXTT16=
PLAYORDER=
